<svg width="32" height="32" viewBox="0 0 32 32" fill="none" xmlns="http://www.w3.org/2000/svg">
<circle cx="16" cy="16" r="15" stroke="#3366FF" stroke-width="2"/>
<path d="M17.5742 18.4961H10.6367V16.1289H17.2578C18.3594 16.1289 19.1484 15.8711 19.625 15.3555C20.1094 14.8398 20.3516 14.1328 20.3516 13.2344C20.3516 12.3984 20.1172 11.7109 19.6484 11.1719C19.1797 10.625 18.3828 10.3516 17.2578 10.3516H15.3359V25H12.2539V7.9375H17.5859C19.5 7.9375 20.9648 8.41406 21.9805 9.36719C22.9961 10.3125 23.5039 11.5898 23.5039 13.1992C23.5039 14.8789 22.9961 16.1836 21.9805 17.1133C20.9648 18.0352 19.4961 18.4961 17.5742 18.4961ZM19.6719 20.1719V22.2578H10.625V20.1719H19.6719Z" fill="#3366FF"/>
</svg>
