<svg width="14" height="14" viewBox="0 0 14 14" fill="none" xmlns="http://www.w3.org/2000/svg">
<g clip-path="url(#clip0_610_4689)">
<path d="M7 14C10.866 14 14 10.866 14 7C14 3.13401 10.866 0 7 0C3.13401 0 0 3.13401 0 7C0 10.866 3.13401 14 7 14Z" fill="url(#paint0_linear_610_4689)"/>
<path d="M4.73828 7.5117L5.56877 9.81038C5.56877 9.81038 5.67261 10.0255 5.78379 10.0255C5.89497 10.0255 7.54866 8.30509 7.54866 8.30509L9.38762 4.75317L4.76791 6.91833L4.73828 7.5117Z" fill="#C8DAEA"/>
<path d="M5.83946 8.1012L5.68004 9.79555C5.68004 9.79555 5.6133 10.3147 6.13235 9.79555C6.6514 9.27638 7.14823 8.87604 7.14823 8.87604" fill="#A9C6D8"/>
<path d="M4.75337 7.59367L3.04502 7.03705C3.04502 7.03705 2.84086 6.95422 2.9066 6.76639C2.92013 6.72765 2.94743 6.6947 3.0291 6.63805C3.40762 6.37421 10.0353 3.99205 10.0353 3.99205C10.0353 3.99205 10.2224 3.929 10.3328 3.97094C10.3601 3.97939 10.3847 3.99494 10.404 4.016C10.4233 4.03707 10.4367 4.06288 10.4427 4.09081C10.4547 4.14014 10.4597 4.1909 10.4576 4.2416C10.457 4.28547 10.4517 4.32613 10.4477 4.38989C10.4073 5.04118 9.19936 9.90198 9.19936 9.90198C9.19936 9.90198 9.12709 10.1864 8.86815 10.1962C8.80451 10.1982 8.74112 10.1874 8.68174 10.1645C8.62235 10.1415 8.56821 10.1068 8.52252 10.0625C8.01438 9.62536 6.25808 8.44505 5.86999 8.18546C5.86124 8.1795 5.85386 8.17172 5.84837 8.16267C5.84287 8.15361 5.83939 8.14348 5.83814 8.13296C5.83271 8.1056 5.86246 8.07171 5.86246 8.07171C5.86246 8.07171 8.92065 5.35338 9.00202 5.06801C9.00832 5.0459 8.98452 5.035 8.95256 5.04468C8.74944 5.1194 5.22832 7.34301 4.83971 7.58842C4.81173 7.59688 4.78217 7.59868 4.75337 7.59367Z" fill="white"/>
</g>
<defs>
<linearGradient id="paint0_linear_610_4689" x1="7" y1="14" x2="7" y2="0" gradientUnits="userSpaceOnUse">
<stop stop-color="#1D93D2"/>
<stop offset="1" stop-color="#38B0E3"/>
</linearGradient>
<clipPath id="clip0_610_4689">
<rect width="14" height="14" fill="white"/>
</clipPath>
</defs>
</svg>
